<svg width="20" height="20" viewBox="0 0 20 20" fill="none" xmlns="http://www.w3.org/2000/svg">
<path d="M5.83298 11.667C5.46917 11.6675 5.10984 11.7474 4.7801 11.9011C4.45035 12.0548 4.15813 12.2787 3.92384 12.557C3.68954 12.8354 3.51882 13.1615 3.42359 13.5126C3.32836 13.8637 3.31091 14.2314 3.37247 14.59C3.43403 14.9486 3.57311 15.2894 3.78 15.5886C3.98689 15.8879 4.2566 16.1384 4.57031 16.3227C4.88402 16.5069 5.23416 16.6205 5.5963 16.6554C5.95843 16.6904 6.32383 16.6459 6.66698 16.525" stroke="#FFB21E" stroke-width="1.25" stroke-linecap="round" stroke-linejoin="round"/>
<path d="M3.55299 13.004C3.05425 12.7639 2.62315 12.4034 2.2986 11.9551C1.97406 11.5067 1.76628 10.9846 1.69404 10.4358C1.6218 9.88701 1.68736 9.32889 1.88481 8.8118C2.08226 8.29471 2.40537 7.83493 2.82499 7.47398M2.84999 7.40698C2.57591 6.9981 2.45548 6.50537 2.51006 6.01616C2.56464 5.52696 2.79071 5.07289 3.14818 4.73447C3.50564 4.39606 3.9714 4.19518 4.46286 4.16745C4.95432 4.13972 5.43973 4.28693 5.83299 4.58298M6.03199 4.63698C5.89919 4.35455 5.83155 4.0459 5.83406 3.73382C5.83658 3.42174 5.90918 3.11421 6.04652 2.83396C6.18386 2.55371 6.38242 2.30791 6.62752 2.11471C6.87262 1.92151 7.158 1.78586 7.46258 1.71777C7.76715 1.64969 8.08313 1.65092 8.38717 1.72136C8.6912 1.79181 8.97553 1.92967 9.21912 2.12476C9.46272 2.31986 9.65936 2.5672 9.79452 2.8485C9.92968 3.12981 9.9999 3.43789 9.99999 3.74998V16.667C9.98934 17.1019 9.80908 17.5154 9.49772 17.8192C9.18635 18.1231 8.76854 18.2932 8.33349 18.2932C7.89845 18.2932 7.48064 18.1231 7.16927 17.8192C6.8579 17.5154 6.67765 17.1019 6.66699 16.667M9.99999 5.83298C9.99999 6.49602 10.2634 7.13191 10.7322 7.60075C11.2011 8.06959 11.837 8.33298 12.5 8.33298M14.167 11.667C14.5308 11.6675 14.8901 11.7474 15.2199 11.9011C15.5496 12.0548 15.8418 12.2787 16.0761 12.557C16.3104 12.8353 16.4812 13.1615 16.5764 13.5126C16.6716 13.8637 16.6891 14.2314 16.6275 14.59C16.5659 14.9485 16.4269 15.2894 16.22 15.5886C16.0131 15.8879 15.7434 16.1384 15.4297 16.3227C15.116 16.5069 14.7658 16.6205 14.4037 16.6554C14.0415 16.6904 13.6761 16.6458 13.333 16.525" stroke="#FFB21E" stroke-width="1.25" stroke-linecap="round" stroke-linejoin="round"/>
<path d="M16.447 13.004C16.9455 12.7638 17.3764 12.4032 17.7008 11.9549C18.0252 11.5065 18.2329 10.9844 18.3051 10.4357C18.3774 9.88706 18.3119 9.32903 18.1146 8.81198C17.9173 8.29493 17.5944 7.83513 17.175 7.47404M17.15 7.40704C17.4241 6.99817 17.5445 6.50544 17.4899 6.01623C17.4353 5.52702 17.2093 5.07295 16.8518 4.73454C16.4944 4.39613 16.0286 4.19524 15.5371 4.16751C15.0457 4.13978 14.5603 4.28699 14.167 4.58304M10 3.75004C10.0003 3.43794 10.0707 3.1299 10.206 2.84864C10.3412 2.56737 10.5379 2.32006 10.7815 2.12494C11.0251 1.92982 11.3094 1.79188 11.6134 1.72128C11.9174 1.65068 12.2334 1.64923 12.538 1.71704C12.8425 1.78534 13.1278 1.92116 13.3728 2.11447C13.6178 2.30779 13.8163 2.55367 13.9536 2.83395C14.0908 3.11424 14.1634 3.42178 14.1659 3.73386C14.1684 4.04594 14.1008 4.3546 13.968 4.63704M13.333 16.667C13.3223 17.102 13.1421 17.5155 12.8307 17.8193C12.5194 18.1231 12.1015 18.2932 11.6665 18.2932C11.2315 18.2932 10.8136 18.1231 10.5023 17.8193C10.1909 17.5155 10.0107 17.102 10 16.667" stroke="#FFB21E" stroke-width="1.25" stroke-linecap="round" stroke-linejoin="round"/>
</svg>
