<svg width="20" height="20" viewBox="0 0 20 20" fill="none" xmlns="http://www.w3.org/2000/svg">
<path d="M7.833 10.333H12.833M10.333 18.666C11.9811 18.666 13.5922 18.1773 14.9626 17.2616C16.3329 16.346 17.401 15.0446 18.0317 13.5219C18.6624 11.9992 18.8274 10.3238 18.5059 8.70732C18.1844 7.09087 17.3907 5.60607 16.2253 4.44068C15.0599 3.27529 13.5751 2.48165 11.9587 2.16012C10.3422 1.83859 8.66676 2.00361 7.1441 2.63432C5.62144 3.26502 4.32001 4.33308 3.40436 5.70344C2.48872 7.07379 2 8.68489 2 10.333C2 11.851 2.406 13.275 3.115 14.5L2.416 18.25L6.166 17.551C7.43237 18.2836 8.86998 18.6683 10.333 18.666Z" stroke="#00BB8F" stroke-width="1.25" stroke-linecap="round" stroke-linejoin="round"/>
</svg>
